<svg xmlns="http://www.w3.org/2000/svg" width="2000" height="800" viewBox="0 0 2000 800"><rect width="2000" height="800" fill="white"/><path d="M80 560 L80 330 L200 210 L330 210 L450 330 L450 560 Z" fill="none" stroke="#0B4D8C" stroke-width="28"/><path d="M450 330 L530 270 L590 305 L500 385 Z" fill="#F2C200"/><path d="M330 210 L390 165 L450 200 L380 250 Z" fill="#20C16A"/><rect x="139.39" y="199.39" width="9.70" height="9.70" fill="#0B4D8C"/>
<rect x="149.09" y="199.39" width="9.70" height="9.70" fill="#0B4D8C"/>
<rect x="158.79" y="199.39" width="9.70" height="9.70" fill="#0B4D8C"/>
<rect x="168.48" y="199.39" width="9.70" height="9.70" fill="#0B4D8C"/>
<rect x="178.18" y="199.39" width="9.70" height="9.70" fill="#0B4D8C"/>
<rect x="187.88" y="199.39" width="9.70" height="9.70" fill="#0B4D8C"/>
<rect x="197.58" y="199.39" width="9.70" height="9.70" fill="#0B4D8C"/>
<rect x="226.67" y="199.39" width="9.70" height="9.70" fill="#0B4D8C"/>
<rect x="236.36" y="199.39" width="9.70" height="9.70" fill="#0B4D8C"/>
<rect x="265.45" y="199.39" width="9.70" height="9.70" fill="#0B4D8C"/>
<rect x="284.85" y="199.39" width="9.70" height="9.70" fill="#0B4D8C"/>
<rect x="323.64" y="199.39" width="9.70" height="9.70" fill="#0B4D8C"/>
<rect x="333.33" y="199.39" width="9.70" height="9.70" fill="#0B4D8C"/>
<rect x="352.73" y="199.39" width="9.70" height="9.70" fill="#0B4D8C"/>
<rect x="362.42" y="199.39" width="9.70" height="9.70" fill="#0B4D8C"/>
<rect x="372.12" y="199.39" width="9.70" height="9.70" fill="#0B4D8C"/>
<rect x="381.82" y="199.39" width="9.70" height="9.70" fill="#0B4D8C"/>
<rect x="391.52" y="199.39" width="9.70" height="9.70" fill="#0B4D8C"/>
<rect x="401.21" y="199.39" width="9.70" height="9.70" fill="#0B4D8C"/>
<rect x="410.91" y="199.39" width="9.70" height="9.70" fill="#0B4D8C"/>
<rect x="139.39" y="209.09" width="9.70" height="9.70" fill="#0B4D8C"/>
<rect x="197.58" y="209.09" width="9.70" height="9.70" fill="#0B4D8C"/>
<rect x="226.67" y="209.09" width="9.70" height="9.70" fill="#0B4D8C"/>
<rect x="246.06" y="209.09" width="9.70" height="9.70" fill="#0B4D8C"/>
<rect x="255.76" y="209.09" width="9.70" height="9.70" fill="#0B4D8C"/>
<rect x="275.15" y="209.09" width="9.70" height="9.70" fill="#0B4D8C"/>
<rect x="284.85" y="209.09" width="9.70" height="9.70" fill="#0B4D8C"/>
<rect x="294.55" y="209.09" width="9.70" height="9.70" fill="#0B4D8C"/>
<rect x="304.24" y="209.09" width="9.70" height="9.70" fill="#0B4D8C"/>
<rect x="323.64" y="209.09" width="9.70" height="9.70" fill="#0B4D8C"/>
<rect x="352.73" y="209.09" width="9.70" height="9.70" fill="#0B4D8C"/>
<rect x="410.91" y="209.09" width="9.70" height="9.70" fill="#0B4D8C"/>
<rect x="139.39" y="218.79" width="9.70" height="9.70" fill="#0B4D8C"/>
<rect x="158.79" y="218.79" width="9.70" height="9.70" fill="#0B4D8C"/>
<rect x="168.48" y="218.79" width="9.70" height="9.70" fill="#0B4D8C"/>
<rect x="178.18" y="218.79" width="9.70" height="9.70" fill="#0B4D8C"/>
<rect x="197.58" y="218.79" width="9.70" height="9.70" fill="#0B4D8C"/>
<rect x="216.97" y="218.79" width="9.70" height="9.70" fill="#0B4D8C"/>
<rect x="226.67" y="218.79" width="9.70" height="9.70" fill="#0B4D8C"/>
<rect x="275.15" y="218.79" width="9.70" height="9.70" fill="#0B4D8C"/>
<rect x="284.85" y="218.79" width="9.70" height="9.70" fill="#0B4D8C"/>
<rect x="323.64" y="218.79" width="9.70" height="9.70" fill="#0B4D8C"/>
<rect x="352.73" y="218.79" width="9.70" height="9.70" fill="#0B4D8C"/>
<rect x="372.12" y="218.79" width="9.70" height="9.70" fill="#0B4D8C"/>
<rect x="381.82" y="218.79" width="9.70" height="9.70" fill="#0B4D8C"/>
<rect x="391.52" y="218.79" width="9.70" height="9.70" fill="#0B4D8C"/>
<rect x="410.91" y="218.79" width="9.70" height="9.70" fill="#0B4D8C"/>
<rect x="139.39" y="228.48" width="9.70" height="9.70" fill="#0B4D8C"/>
<rect x="158.79" y="228.48" width="9.70" height="9.70" fill="#0B4D8C"/>
<rect x="168.48" y="228.48" width="9.70" height="9.70" fill="#0B4D8C"/>
<rect x="178.18" y="228.48" width="9.70" height="9.70" fill="#0B4D8C"/>
<rect x="197.58" y="228.48" width="9.70" height="9.70" fill="#0B4D8C"/>
<rect x="216.97" y="228.48" width="9.70" height="9.70" fill="#0B4D8C"/>
<rect x="236.36" y="228.48" width="9.70" height="9.70" fill="#0B4D8C"/>
<rect x="255.76" y="228.48" width="9.70" height="9.70" fill="#0B4D8C"/>
<rect x="275.15" y="228.48" width="9.70" height="9.70" fill="#0B4D8C"/>
<rect x="294.55" y="228.48" width="9.70" height="9.70" fill="#0B4D8C"/>
<rect x="304.24" y="228.48" width="9.70" height="9.70" fill="#0B4D8C"/>
<rect x="333.33" y="228.48" width="9.70" height="9.70" fill="#0B4D8C"/>
<rect x="352.73" y="228.48" width="9.70" height="9.70" fill="#0B4D8C"/>
<rect x="372.12" y="228.48" width="9.70" height="9.70" fill="#0B4D8C"/>
<rect x="381.82" y="228.48" width="9.70" height="9.70" fill="#0B4D8C"/>
<rect x="391.52" y="228.48" width="9.70" height="9.70" fill="#0B4D8C"/>
<rect x="410.91" y="228.48" width="9.70" height="9.70" fill="#0B4D8C"/>
<rect x="139.39" y="238.18" width="9.70" height="9.70" fill="#0B4D8C"/>
<rect x="158.79" y="238.18" width="9.70" height="9.70" fill="#0B4D8C"/>
<rect x="168.48" y="238.18" width="9.70" height="9.70" fill="#0B4D8C"/>
<rect x="178.18" y="238.18" width="9.70" height="9.70" fill="#0B4D8C"/>
<rect x="197.58" y="238.18" width="9.70" height="9.70" fill="#0B4D8C"/>
<rect x="236.36" y="238.18" width="9.70" height="9.70" fill="#0B4D8C"/>
<rect x="246.06" y="238.18" width="9.70" height="9.70" fill="#0B4D8C"/>
<rect x="284.85" y="238.18" width="9.70" height="9.70" fill="#0B4D8C"/>
<rect x="294.55" y="238.18" width="9.70" height="9.70" fill="#0B4D8C"/>
<rect x="323.64" y="238.18" width="9.70" height="9.70" fill="#0B4D8C"/>
<rect x="352.73" y="238.18" width="9.70" height="9.70" fill="#0B4D8C"/>
<rect x="372.12" y="238.18" width="9.70" height="9.70" fill="#0B4D8C"/>
<rect x="381.82" y="238.18" width="9.70" height="9.70" fill="#0B4D8C"/>
<rect x="391.52" y="238.18" width="9.70" height="9.70" fill="#0B4D8C"/>
<rect x="410.91" y="238.18" width="9.70" height="9.70" fill="#0B4D8C"/>
<rect x="139.39" y="247.88" width="9.70" height="9.70" fill="#0B4D8C"/>
<rect x="197.58" y="247.88" width="9.70" height="9.70" fill="#0B4D8C"/>
<rect x="226.67" y="247.88" width="9.70" height="9.70" fill="#0B4D8C"/>
<rect x="246.06" y="247.88" width="9.70" height="9.70" fill="#0B4D8C"/>
<rect x="265.45" y="247.88" width="9.70" height="9.70" fill="#0B4D8C"/>
<rect x="275.15" y="247.88" width="9.70" height="9.70" fill="#0B4D8C"/>
<rect x="294.55" y="247.88" width="9.70" height="9.70" fill="#0B4D8C"/>
<rect x="333.33" y="247.88" width="9.70" height="9.70" fill="#0B4D8C"/>
<rect x="352.73" y="247.88" width="9.70" height="9.70" fill="#0B4D8C"/>
<rect x="410.91" y="247.88" width="9.70" height="9.70" fill="#0B4D8C"/>
<rect x="139.39" y="257.58" width="9.70" height="9.70" fill="#0B4D8C"/>
<rect x="149.09" y="257.58" width="9.70" height="9.70" fill="#0B4D8C"/>
<rect x="158.79" y="257.58" width="9.70" height="9.70" fill="#0B4D8C"/>
<rect x="168.48" y="257.58" width="9.70" height="9.70" fill="#0B4D8C"/>
<rect x="178.18" y="257.58" width="9.70" height="9.70" fill="#0B4D8C"/>
<rect x="187.88" y="257.58" width="9.70" height="9.70" fill="#0B4D8C"/>
<rect x="197.58" y="257.58" width="9.70" height="9.70" fill="#0B4D8C"/>
<rect x="216.97" y="257.58" width="9.70" height="9.70" fill="#0B4D8C"/>
<rect x="236.36" y="257.58" width="9.70" height="9.70" fill="#0B4D8C"/>
<rect x="255.76" y="257.58" width="9.70" height="9.70" fill="#0B4D8C"/>
<rect x="275.15" y="257.58" width="9.70" height="9.70" fill="#0B4D8C"/>
<rect x="294.55" y="257.58" width="9.70" height="9.70" fill="#0B4D8C"/>
<rect x="313.94" y="257.58" width="9.70" height="9.70" fill="#0B4D8C"/>
<rect x="333.33" y="257.58" width="9.70" height="9.70" fill="#0B4D8C"/>
<rect x="352.73" y="257.58" width="9.70" height="9.70" fill="#0B4D8C"/>
<rect x="362.42" y="257.58" width="9.70" height="9.70" fill="#0B4D8C"/>
<rect x="372.12" y="257.58" width="9.70" height="9.70" fill="#0B4D8C"/>
<rect x="381.82" y="257.58" width="9.70" height="9.70" fill="#0B4D8C"/>
<rect x="391.52" y="257.58" width="9.70" height="9.70" fill="#0B4D8C"/>
<rect x="401.21" y="257.58" width="9.70" height="9.70" fill="#0B4D8C"/>
<rect x="410.91" y="257.58" width="9.70" height="9.70" fill="#0B4D8C"/>
<rect x="246.06" y="267.27" width="9.70" height="9.70" fill="#0B4D8C"/>
<rect x="255.76" y="267.27" width="9.70" height="9.70" fill="#0B4D8C"/>
<rect x="284.85" y="267.27" width="9.70" height="9.70" fill="#0B4D8C"/>
<rect x="304.24" y="267.27" width="9.70" height="9.70" fill="#0B4D8C"/>
<rect x="313.94" y="267.27" width="9.70" height="9.70" fill="#0B4D8C"/>
<rect x="323.64" y="267.27" width="9.70" height="9.70" fill="#0B4D8C"/>
<rect x="168.48" y="276.97" width="9.70" height="9.70" fill="#0B4D8C"/>
<rect x="178.18" y="276.97" width="9.70" height="9.70" fill="#0B4D8C"/>
<rect x="197.58" y="276.97" width="9.70" height="9.70" fill="#0B4D8C"/>
<rect x="207.27" y="276.97" width="9.70" height="9.70" fill="#0B4D8C"/>
<rect x="226.67" y="276.97" width="9.70" height="9.70" fill="#0B4D8C"/>
<rect x="236.36" y="276.97" width="9.70" height="9.70" fill="#0B4D8C"/>
<rect x="246.06" y="276.97" width="9.70" height="9.70" fill="#0B4D8C"/>
<rect x="381.82" y="276.97" width="9.70" height="9.70" fill="#0B4D8C"/>
<rect x="391.52" y="276.97" width="9.70" height="9.70" fill="#0B4D8C"/>
<rect x="139.39" y="286.67" width="9.70" height="9.70" fill="#0B4D8C"/>
<rect x="158.79" y="286.67" width="9.70" height="9.70" fill="#0B4D8C"/>
<rect x="168.48" y="286.67" width="9.70" height="9.70" fill="#0B4D8C"/>
<rect x="187.88" y="286.67" width="9.70" height="9.70" fill="#0B4D8C"/>
<rect x="207.27" y="286.67" width="9.70" height="9.70" fill="#0B4D8C"/>
<rect x="216.97" y="286.67" width="9.70" height="9.70" fill="#0B4D8C"/>
<rect x="226.67" y="286.67" width="9.70" height="9.70" fill="#0B4D8C"/>
<rect x="236.36" y="286.67" width="9.70" height="9.70" fill="#0B4D8C"/>
<rect x="255.76" y="286.67" width="9.70" height="9.70" fill="#0B4D8C"/>
<rect x="304.24" y="286.67" width="9.70" height="9.70" fill="#0B4D8C"/>
<rect x="313.94" y="286.67" width="9.70" height="9.70" fill="#0B4D8C"/>
<rect x="362.42" y="286.67" width="9.70" height="9.70" fill="#0B4D8C"/>
<rect x="372.12" y="286.67" width="9.70" height="9.70" fill="#0B4D8C"/>
<rect x="401.21" y="286.67" width="9.70" height="9.70" fill="#0B4D8C"/>
<rect x="139.39" y="296.36" width="9.70" height="9.70" fill="#0B4D8C"/>
<rect x="149.09" y="296.36" width="9.70" height="9.70" fill="#0B4D8C"/>
<rect x="158.79" y="296.36" width="9.70" height="9.70" fill="#0B4D8C"/>
<rect x="168.48" y="296.36" width="9.70" height="9.70" fill="#0B4D8C"/>
<rect x="187.88" y="296.36" width="9.70" height="9.70" fill="#0B4D8C"/>
<rect x="197.58" y="296.36" width="9.70" height="9.70" fill="#0B4D8C"/>
<rect x="207.27" y="296.36" width="9.70" height="9.70" fill="#0B4D8C"/>
<rect x="216.97" y="296.36" width="9.70" height="9.70" fill="#0B4D8C"/>
<rect x="246.06" y="296.36" width="9.70" height="9.70" fill="#0B4D8C"/>
<rect x="255.76" y="296.36" width="9.70" height="9.70" fill="#0B4D8C"/>
<rect x="265.45" y="296.36" width="9.70" height="9.70" fill="#0B4D8C"/>
<rect x="294.55" y="296.36" width="9.70" height="9.70" fill="#0B4D8C"/>
<rect x="313.94" y="296.36" width="9.70" height="9.70" fill="#0B4D8C"/>
<rect x="323.64" y="296.36" width="9.70" height="9.70" fill="#0B4D8C"/>
<rect x="333.33" y="296.36" width="9.70" height="9.70" fill="#0B4D8C"/>
<rect x="343.03" y="296.36" width="9.70" height="9.70" fill="#0B4D8C"/>
<rect x="352.73" y="296.36" width="9.70" height="9.70" fill="#0B4D8C"/>
<rect x="362.42" y="296.36" width="9.70" height="9.70" fill="#0B4D8C"/>
<rect x="381.82" y="296.36" width="9.70" height="9.70" fill="#0B4D8C"/>
<rect x="391.52" y="296.36" width="9.70" height="9.70" fill="#0B4D8C"/>
<rect x="149.09" y="306.06" width="9.70" height="9.70" fill="#0B4D8C"/>
<rect x="216.97" y="306.06" width="9.70" height="9.70" fill="#0B4D8C"/>
<rect x="255.76" y="306.06" width="9.70" height="9.70" fill="#0B4D8C"/>
<rect x="265.45" y="306.06" width="9.70" height="9.70" fill="#0B4D8C"/>
<rect x="284.85" y="306.06" width="9.70" height="9.70" fill="#0B4D8C"/>
<rect x="323.64" y="306.06" width="9.70" height="9.70" fill="#0B4D8C"/>
<rect x="333.33" y="306.06" width="9.70" height="9.70" fill="#0B4D8C"/>
<rect x="381.82" y="306.06" width="9.70" height="9.70" fill="#0B4D8C"/>
<rect x="410.91" y="306.06" width="9.70" height="9.70" fill="#0B4D8C"/>
<rect x="139.39" y="315.76" width="9.70" height="9.70" fill="#0B4D8C"/>
<rect x="149.09" y="315.76" width="9.70" height="9.70" fill="#0B4D8C"/>
<rect x="178.18" y="315.76" width="9.70" height="9.70" fill="#0B4D8C"/>
<rect x="197.58" y="315.76" width="9.70" height="9.70" fill="#0B4D8C"/>
<rect x="207.27" y="315.76" width="9.70" height="9.70" fill="#0B4D8C"/>
<rect x="216.97" y="315.76" width="9.70" height="9.70" fill="#0B4D8C"/>
<rect x="226.67" y="315.76" width="9.70" height="9.70" fill="#0B4D8C"/>
<rect x="275.15" y="315.76" width="9.70" height="9.70" fill="#0B4D8C"/>
<rect x="333.33" y="315.76" width="9.70" height="9.70" fill="#0B4D8C"/>
<rect x="343.03" y="315.76" width="9.70" height="9.70" fill="#0B4D8C"/>
<rect x="352.73" y="315.76" width="9.70" height="9.70" fill="#0B4D8C"/>
<rect x="401.21" y="315.76" width="9.70" height="9.70" fill="#0B4D8C"/>
<rect x="139.39" y="325.45" width="9.70" height="9.70" fill="#0B4D8C"/>
<rect x="149.09" y="325.45" width="9.70" height="9.70" fill="#0B4D8C"/>
<rect x="158.79" y="325.45" width="9.70" height="9.70" fill="#0B4D8C"/>
<rect x="178.18" y="325.45" width="9.70" height="9.70" fill="#0B4D8C"/>
<rect x="207.27" y="325.45" width="9.70" height="9.70" fill="#0B4D8C"/>
<rect x="216.97" y="325.45" width="9.70" height="9.70" fill="#0B4D8C"/>
<rect x="226.67" y="325.45" width="9.70" height="9.70" fill="#0B4D8C"/>
<rect x="236.36" y="325.45" width="9.70" height="9.70" fill="#0B4D8C"/>
<rect x="255.76" y="325.45" width="9.70" height="9.70" fill="#0B4D8C"/>
<rect x="265.45" y="325.45" width="9.70" height="9.70" fill="#0B4D8C"/>
<rect x="304.24" y="325.45" width="9.70" height="9.70" fill="#0B4D8C"/>
<rect x="313.94" y="325.45" width="9.70" height="9.70" fill="#0B4D8C"/>
<rect x="352.73" y="325.45" width="9.70" height="9.70" fill="#0B4D8C"/>
<rect x="372.12" y="325.45" width="9.70" height="9.70" fill="#0B4D8C"/>
<rect x="391.52" y="325.45" width="9.70" height="9.70" fill="#0B4D8C"/>
<rect x="410.91" y="325.45" width="9.70" height="9.70" fill="#0B4D8C"/>
<rect x="139.39" y="335.15" width="9.70" height="9.70" fill="#0B4D8C"/>
<rect x="178.18" y="335.15" width="9.70" height="9.70" fill="#0B4D8C"/>
<rect x="197.58" y="335.15" width="9.70" height="9.70" fill="#0B4D8C"/>
<rect x="216.97" y="335.15" width="9.70" height="9.70" fill="#0B4D8C"/>
<rect x="236.36" y="335.15" width="9.70" height="9.70" fill="#0B4D8C"/>
<rect x="255.76" y="335.15" width="9.70" height="9.70" fill="#0B4D8C"/>
<rect x="284.85" y="335.15" width="9.70" height="9.70" fill="#0B4D8C"/>
<rect x="294.55" y="335.15" width="9.70" height="9.70" fill="#0B4D8C"/>
<rect x="313.94" y="335.15" width="9.70" height="9.70" fill="#0B4D8C"/>
<rect x="323.64" y="335.15" width="9.70" height="9.70" fill="#0B4D8C"/>
<rect x="333.33" y="335.15" width="9.70" height="9.70" fill="#0B4D8C"/>
<rect x="343.03" y="335.15" width="9.70" height="9.70" fill="#0B4D8C"/>
<rect x="352.73" y="335.15" width="9.70" height="9.70" fill="#0B4D8C"/>
<rect x="362.42" y="335.15" width="9.70" height="9.70" fill="#0B4D8C"/>
<rect x="381.82" y="335.15" width="9.70" height="9.70" fill="#0B4D8C"/>
<rect x="410.91" y="335.15" width="9.70" height="9.70" fill="#0B4D8C"/>
<rect x="158.79" y="344.85" width="9.70" height="9.70" fill="#0B4D8C"/>
<rect x="178.18" y="344.85" width="9.70" height="9.70" fill="#0B4D8C"/>
<rect x="187.88" y="344.85" width="9.70" height="9.70" fill="#0B4D8C"/>
<rect x="207.27" y="344.85" width="9.70" height="9.70" fill="#0B4D8C"/>
<rect x="226.67" y="344.85" width="9.70" height="9.70" fill="#0B4D8C"/>
<rect x="246.06" y="344.85" width="9.70" height="9.70" fill="#0B4D8C"/>
<rect x="265.45" y="344.85" width="9.70" height="9.70" fill="#0B4D8C"/>
<rect x="304.24" y="344.85" width="9.70" height="9.70" fill="#0B4D8C"/>
<rect x="333.33" y="344.85" width="9.70" height="9.70" fill="#0B4D8C"/>
<rect x="343.03" y="344.85" width="9.70" height="9.70" fill="#0B4D8C"/>
<rect x="372.12" y="344.85" width="9.70" height="9.70" fill="#0B4D8C"/>
<rect x="381.82" y="344.85" width="9.70" height="9.70" fill="#0B4D8C"/>
<rect x="391.52" y="344.85" width="9.70" height="9.70" fill="#0B4D8C"/>
<rect x="401.21" y="344.85" width="9.70" height="9.70" fill="#0B4D8C"/>
<rect x="410.91" y="344.85" width="9.70" height="9.70" fill="#0B4D8C"/>
<rect x="178.18" y="354.55" width="9.70" height="9.70" fill="#0B4D8C"/>
<rect x="187.88" y="354.55" width="9.70" height="9.70" fill="#0B4D8C"/>
<rect x="197.58" y="354.55" width="9.70" height="9.70" fill="#0B4D8C"/>
<rect x="207.27" y="354.55" width="9.70" height="9.70" fill="#0B4D8C"/>
<rect x="226.67" y="354.55" width="9.70" height="9.70" fill="#0B4D8C"/>
<rect x="236.36" y="354.55" width="9.70" height="9.70" fill="#0B4D8C"/>
<rect x="255.76" y="354.55" width="9.70" height="9.70" fill="#0B4D8C"/>
<rect x="265.45" y="354.55" width="9.70" height="9.70" fill="#0B4D8C"/>
<rect x="275.15" y="354.55" width="9.70" height="9.70" fill="#0B4D8C"/>
<rect x="284.85" y="354.55" width="9.70" height="9.70" fill="#0B4D8C"/>
<rect x="323.64" y="354.55" width="9.70" height="9.70" fill="#0B4D8C"/>
<rect x="333.33" y="354.55" width="9.70" height="9.70" fill="#0B4D8C"/>
<rect x="362.42" y="354.55" width="9.70" height="9.70" fill="#0B4D8C"/>
<rect x="381.82" y="354.55" width="9.70" height="9.70" fill="#0B4D8C"/>
<rect x="139.39" y="364.24" width="9.70" height="9.70" fill="#0B4D8C"/>
<rect x="158.79" y="364.24" width="9.70" height="9.70" fill="#0B4D8C"/>
<rect x="187.88" y="364.24" width="9.70" height="9.70" fill="#0B4D8C"/>
<rect x="216.97" y="364.24" width="9.70" height="9.70" fill="#0B4D8C"/>
<rect x="226.67" y="364.24" width="9.70" height="9.70" fill="#0B4D8C"/>
<rect x="246.06" y="364.24" width="9.70" height="9.70" fill="#0B4D8C"/>
<rect x="255.76" y="364.24" width="9.70" height="9.70" fill="#0B4D8C"/>
<rect x="265.45" y="364.24" width="9.70" height="9.70" fill="#0B4D8C"/>
<rect x="294.55" y="364.24" width="9.70" height="9.70" fill="#0B4D8C"/>
<rect x="304.24" y="364.24" width="9.70" height="9.70" fill="#0B4D8C"/>
<rect x="362.42" y="364.24" width="9.70" height="9.70" fill="#0B4D8C"/>
<rect x="372.12" y="364.24" width="9.70" height="9.70" fill="#0B4D8C"/>
<rect x="139.39" y="373.94" width="9.70" height="9.70" fill="#0B4D8C"/>
<rect x="149.09" y="373.94" width="9.70" height="9.70" fill="#0B4D8C"/>
<rect x="158.79" y="373.94" width="9.70" height="9.70" fill="#0B4D8C"/>
<rect x="178.18" y="373.94" width="9.70" height="9.70" fill="#0B4D8C"/>
<rect x="197.58" y="373.94" width="9.70" height="9.70" fill="#0B4D8C"/>
<rect x="207.27" y="373.94" width="9.70" height="9.70" fill="#0B4D8C"/>
<rect x="226.67" y="373.94" width="9.70" height="9.70" fill="#0B4D8C"/>
<rect x="236.36" y="373.94" width="9.70" height="9.70" fill="#0B4D8C"/>
<rect x="246.06" y="373.94" width="9.70" height="9.70" fill="#0B4D8C"/>
<rect x="284.85" y="373.94" width="9.70" height="9.70" fill="#0B4D8C"/>
<rect x="323.64" y="373.94" width="9.70" height="9.70" fill="#0B4D8C"/>
<rect x="362.42" y="373.94" width="9.70" height="9.70" fill="#0B4D8C"/>
<rect x="410.91" y="373.94" width="9.70" height="9.70" fill="#0B4D8C"/>
<rect x="139.39" y="383.64" width="9.70" height="9.70" fill="#0B4D8C"/>
<rect x="149.09" y="383.64" width="9.70" height="9.70" fill="#0B4D8C"/>
<rect x="207.27" y="383.64" width="9.70" height="9.70" fill="#0B4D8C"/>
<rect x="236.36" y="383.64" width="9.70" height="9.70" fill="#0B4D8C"/>
<rect x="255.76" y="383.64" width="9.70" height="9.70" fill="#0B4D8C"/>
<rect x="265.45" y="383.64" width="9.70" height="9.70" fill="#0B4D8C"/>
<rect x="275.15" y="383.64" width="9.70" height="9.70" fill="#0B4D8C"/>
<rect x="294.55" y="383.64" width="9.70" height="9.70" fill="#0B4D8C"/>
<rect x="304.24" y="383.64" width="9.70" height="9.70" fill="#0B4D8C"/>
<rect x="313.94" y="383.64" width="9.70" height="9.70" fill="#0B4D8C"/>
<rect x="323.64" y="383.64" width="9.70" height="9.70" fill="#0B4D8C"/>
<rect x="343.03" y="383.64" width="9.70" height="9.70" fill="#0B4D8C"/>
<rect x="352.73" y="383.64" width="9.70" height="9.70" fill="#0B4D8C"/>
<rect x="372.12" y="383.64" width="9.70" height="9.70" fill="#0B4D8C"/>
<rect x="391.52" y="383.64" width="9.70" height="9.70" fill="#0B4D8C"/>
<rect x="401.21" y="383.64" width="9.70" height="9.70" fill="#0B4D8C"/>
<rect x="139.39" y="393.33" width="9.70" height="9.70" fill="#0B4D8C"/>
<rect x="149.09" y="393.33" width="9.70" height="9.70" fill="#0B4D8C"/>
<rect x="168.48" y="393.33" width="9.70" height="9.70" fill="#0B4D8C"/>
<rect x="178.18" y="393.33" width="9.70" height="9.70" fill="#0B4D8C"/>
<rect x="197.58" y="393.33" width="9.70" height="9.70" fill="#0B4D8C"/>
<rect x="207.27" y="393.33" width="9.70" height="9.70" fill="#0B4D8C"/>
<rect x="246.06" y="393.33" width="9.70" height="9.70" fill="#0B4D8C"/>
<rect x="265.45" y="393.33" width="9.70" height="9.70" fill="#0B4D8C"/>
<rect x="275.15" y="393.33" width="9.70" height="9.70" fill="#0B4D8C"/>
<rect x="284.85" y="393.33" width="9.70" height="9.70" fill="#0B4D8C"/>
<rect x="294.55" y="393.33" width="9.70" height="9.70" fill="#0B4D8C"/>
<rect x="304.24" y="393.33" width="9.70" height="9.70" fill="#0B4D8C"/>
<rect x="313.94" y="393.33" width="9.70" height="9.70" fill="#0B4D8C"/>
<rect x="333.33" y="393.33" width="9.70" height="9.70" fill="#0B4D8C"/>
<rect x="343.03" y="393.33" width="9.70" height="9.70" fill="#0B4D8C"/>
<rect x="352.73" y="393.33" width="9.70" height="9.70" fill="#0B4D8C"/>
<rect x="362.42" y="393.33" width="9.70" height="9.70" fill="#0B4D8C"/>
<rect x="372.12" y="393.33" width="9.70" height="9.70" fill="#0B4D8C"/>
<rect x="391.52" y="393.33" width="9.70" height="9.70" fill="#0B4D8C"/>
<rect x="410.91" y="393.33" width="9.70" height="9.70" fill="#0B4D8C"/>
<rect x="216.97" y="403.03" width="9.70" height="9.70" fill="#0B4D8C"/>
<rect x="246.06" y="403.03" width="9.70" height="9.70" fill="#0B4D8C"/>
<rect x="275.15" y="403.03" width="9.70" height="9.70" fill="#0B4D8C"/>
<rect x="333.33" y="403.03" width="9.70" height="9.70" fill="#0B4D8C"/>
<rect x="372.12" y="403.03" width="9.70" height="9.70" fill="#0B4D8C"/>
<rect x="381.82" y="403.03" width="9.70" height="9.70" fill="#0B4D8C"/>
<rect x="391.52" y="403.03" width="9.70" height="9.70" fill="#0B4D8C"/>
<rect x="139.39" y="412.73" width="9.70" height="9.70" fill="#0B4D8C"/>
<rect x="149.09" y="412.73" width="9.70" height="9.70" fill="#0B4D8C"/>
<rect x="158.79" y="412.73" width="9.70" height="9.70" fill="#0B4D8C"/>
<rect x="168.48" y="412.73" width="9.70" height="9.70" fill="#0B4D8C"/>
<rect x="178.18" y="412.73" width="9.70" height="9.70" fill="#0B4D8C"/>
<rect x="187.88" y="412.73" width="9.70" height="9.70" fill="#0B4D8C"/>
<rect x="197.58" y="412.73" width="9.70" height="9.70" fill="#0B4D8C"/>
<rect x="216.97" y="412.73" width="9.70" height="9.70" fill="#0B4D8C"/>
<rect x="226.67" y="412.73" width="9.70" height="9.70" fill="#0B4D8C"/>
<rect x="246.06" y="412.73" width="9.70" height="9.70" fill="#0B4D8C"/>
<rect x="284.85" y="412.73" width="9.70" height="9.70" fill="#0B4D8C"/>
<rect x="304.24" y="412.73" width="9.70" height="9.70" fill="#0B4D8C"/>
<rect x="323.64" y="412.73" width="9.70" height="9.70" fill="#0B4D8C"/>
<rect x="333.33" y="412.73" width="9.70" height="9.70" fill="#0B4D8C"/>
<rect x="352.73" y="412.73" width="9.70" height="9.70" fill="#0B4D8C"/>
<rect x="372.12" y="412.73" width="9.70" height="9.70" fill="#0B4D8C"/>
<rect x="391.52" y="412.73" width="9.70" height="9.70" fill="#0B4D8C"/>
<rect x="139.39" y="422.42" width="9.70" height="9.70" fill="#0B4D8C"/>
<rect x="197.58" y="422.42" width="9.70" height="9.70" fill="#0B4D8C"/>
<rect x="275.15" y="422.42" width="9.70" height="9.70" fill="#0B4D8C"/>
<rect x="284.85" y="422.42" width="9.70" height="9.70" fill="#0B4D8C"/>
<rect x="294.55" y="422.42" width="9.70" height="9.70" fill="#0B4D8C"/>
<rect x="323.64" y="422.42" width="9.70" height="9.70" fill="#0B4D8C"/>
<rect x="333.33" y="422.42" width="9.70" height="9.70" fill="#0B4D8C"/>
<rect x="372.12" y="422.42" width="9.70" height="9.70" fill="#0B4D8C"/>
<rect x="381.82" y="422.42" width="9.70" height="9.70" fill="#0B4D8C"/>
<rect x="139.39" y="432.12" width="9.70" height="9.70" fill="#0B4D8C"/>
<rect x="158.79" y="432.12" width="9.70" height="9.70" fill="#0B4D8C"/>
<rect x="168.48" y="432.12" width="9.70" height="9.70" fill="#0B4D8C"/>
<rect x="178.18" y="432.12" width="9.70" height="9.70" fill="#0B4D8C"/>
<rect x="197.58" y="432.12" width="9.70" height="9.70" fill="#0B4D8C"/>
<rect x="216.97" y="432.12" width="9.70" height="9.70" fill="#0B4D8C"/>
<rect x="236.36" y="432.12" width="9.70" height="9.70" fill="#0B4D8C"/>
<rect x="246.06" y="432.12" width="9.70" height="9.70" fill="#0B4D8C"/>
<rect x="255.76" y="432.12" width="9.70" height="9.70" fill="#0B4D8C"/>
<rect x="265.45" y="432.12" width="9.70" height="9.70" fill="#0B4D8C"/>
<rect x="275.15" y="432.12" width="9.70" height="9.70" fill="#0B4D8C"/>
<rect x="304.24" y="432.12" width="9.70" height="9.70" fill="#0B4D8C"/>
<rect x="323.64" y="432.12" width="9.70" height="9.70" fill="#0B4D8C"/>
<rect x="333.33" y="432.12" width="9.70" height="9.70" fill="#0B4D8C"/>
<rect x="343.03" y="432.12" width="9.70" height="9.70" fill="#0B4D8C"/>
<rect x="352.73" y="432.12" width="9.70" height="9.70" fill="#0B4D8C"/>
<rect x="362.42" y="432.12" width="9.70" height="9.70" fill="#0B4D8C"/>
<rect x="372.12" y="432.12" width="9.70" height="9.70" fill="#0B4D8C"/>
<rect x="410.91" y="432.12" width="9.70" height="9.70" fill="#0B4D8C"/>
<rect x="139.39" y="441.82" width="9.70" height="9.70" fill="#0B4D8C"/>
<rect x="158.79" y="441.82" width="9.70" height="9.70" fill="#0B4D8C"/>
<rect x="168.48" y="441.82" width="9.70" height="9.70" fill="#0B4D8C"/>
<rect x="178.18" y="441.82" width="9.70" height="9.70" fill="#0B4D8C"/>
<rect x="197.58" y="441.82" width="9.70" height="9.70" fill="#0B4D8C"/>
<rect x="216.97" y="441.82" width="9.70" height="9.70" fill="#0B4D8C"/>
<rect x="265.45" y="441.82" width="9.70" height="9.70" fill="#0B4D8C"/>
<rect x="294.55" y="441.82" width="9.70" height="9.70" fill="#0B4D8C"/>
<rect x="304.24" y="441.82" width="9.70" height="9.70" fill="#0B4D8C"/>
<rect x="362.42" y="441.82" width="9.70" height="9.70" fill="#0B4D8C"/>
<rect x="381.82" y="441.82" width="9.70" height="9.70" fill="#0B4D8C"/>
<rect x="391.52" y="441.82" width="9.70" height="9.70" fill="#0B4D8C"/>
<rect x="401.21" y="441.82" width="9.70" height="9.70" fill="#0B4D8C"/>
<rect x="139.39" y="451.52" width="9.70" height="9.70" fill="#0B4D8C"/>
<rect x="158.79" y="451.52" width="9.70" height="9.70" fill="#0B4D8C"/>
<rect x="168.48" y="451.52" width="9.70" height="9.70" fill="#0B4D8C"/>
<rect x="178.18" y="451.52" width="9.70" height="9.70" fill="#0B4D8C"/>
<rect x="197.58" y="451.52" width="9.70" height="9.70" fill="#0B4D8C"/>
<rect x="236.36" y="451.52" width="9.70" height="9.70" fill="#0B4D8C"/>
<rect x="246.06" y="451.52" width="9.70" height="9.70" fill="#0B4D8C"/>
<rect x="265.45" y="451.52" width="9.70" height="9.70" fill="#0B4D8C"/>
<rect x="275.15" y="451.52" width="9.70" height="9.70" fill="#0B4D8C"/>
<rect x="304.24" y="451.52" width="9.70" height="9.70" fill="#0B4D8C"/>
<rect x="313.94" y="451.52" width="9.70" height="9.70" fill="#0B4D8C"/>
<rect x="333.33" y="451.52" width="9.70" height="9.70" fill="#0B4D8C"/>
<rect x="343.03" y="451.52" width="9.70" height="9.70" fill="#0B4D8C"/>
<rect x="362.42" y="451.52" width="9.70" height="9.70" fill="#0B4D8C"/>
<rect x="372.12" y="451.52" width="9.70" height="9.70" fill="#0B4D8C"/>
<rect x="401.21" y="451.52" width="9.70" height="9.70" fill="#0B4D8C"/>
<rect x="410.91" y="451.52" width="9.70" height="9.70" fill="#0B4D8C"/>
<rect x="139.39" y="461.21" width="9.70" height="9.70" fill="#0B4D8C"/>
<rect x="197.58" y="461.21" width="9.70" height="9.70" fill="#0B4D8C"/>
<rect x="226.67" y="461.21" width="9.70" height="9.70" fill="#0B4D8C"/>
<rect x="236.36" y="461.21" width="9.70" height="9.70" fill="#0B4D8C"/>
<rect x="246.06" y="461.21" width="9.70" height="9.70" fill="#0B4D8C"/>
<rect x="275.15" y="461.21" width="9.70" height="9.70" fill="#0B4D8C"/>
<rect x="313.94" y="461.21" width="9.70" height="9.70" fill="#0B4D8C"/>
<rect x="343.03" y="461.21" width="9.70" height="9.70" fill="#0B4D8C"/>
<rect x="372.12" y="461.21" width="9.70" height="9.70" fill="#0B4D8C"/>
<rect x="381.82" y="461.21" width="9.70" height="9.70" fill="#0B4D8C"/>
<rect x="391.52" y="461.21" width="9.70" height="9.70" fill="#0B4D8C"/>
<rect x="410.91" y="461.21" width="9.70" height="9.70" fill="#0B4D8C"/>
<rect x="139.39" y="470.91" width="9.70" height="9.70" fill="#0B4D8C"/>
<rect x="149.09" y="470.91" width="9.70" height="9.70" fill="#0B4D8C"/>
<rect x="158.79" y="470.91" width="9.70" height="9.70" fill="#0B4D8C"/>
<rect x="168.48" y="470.91" width="9.70" height="9.70" fill="#0B4D8C"/>
<rect x="178.18" y="470.91" width="9.70" height="9.70" fill="#0B4D8C"/>
<rect x="187.88" y="470.91" width="9.70" height="9.70" fill="#0B4D8C"/>
<rect x="197.58" y="470.91" width="9.70" height="9.70" fill="#0B4D8C"/>
<rect x="236.36" y="470.91" width="9.70" height="9.70" fill="#0B4D8C"/>
<rect x="265.45" y="470.91" width="9.70" height="9.70" fill="#0B4D8C"/>
<rect x="275.15" y="470.91" width="9.70" height="9.70" fill="#0B4D8C"/>
<rect x="323.64" y="470.91" width="9.70" height="9.70" fill="#0B4D8C"/>
<rect x="333.33" y="470.91" width="9.70" height="9.70" fill="#0B4D8C"/>
<rect x="352.73" y="470.91" width="9.70" height="9.70" fill="#0B4D8C"/>
<rect x="362.42" y="470.91" width="9.70" height="9.70" fill="#0B4D8C"/>
<rect x="372.12" y="470.91" width="9.70" height="9.70" fill="#0B4D8C"/>
<rect x="381.82" y="470.91" width="9.70" height="9.70" fill="#0B4D8C"/><text x="650" y="380" font-size="140" font-weight="700" fill="#12324D" font-family="Arial">Im?veis QR</text><text x="650" y="470" font-size="68" fill="#0B4D8C" font-family="Arial">Automa??o de WhatsApp</text></svg>